# xmcd
#
# Track frame offsets:
#	150
#	21878
#	41692
#	65245
#	89438
#	106518
#	130711
#	154891
#	181034
#	201419
#
# Disc length: 2906 seconds
#
# Revision: 0
# Processed by: cddbd v1.5.2PL0 Copyright (c) Steve Scherf et al.
# Submitted via: EasyCDDAExtractor 15.3.0.1
#
DISCID=820b580a
DTITLE=Phuong Thanh - BTCD - Trai Tim Khong Ngu Yen
DYEAR=1997
DGENRE=
TTITLE0=Phuong Thanh - Co Gai Xuan Thi
TTITLE1=Phuong Thanh - Unbreak My Heart
TTITLE2=Phuong Thanh and Cao Duy - Goc Pho Chieu Co Don
TTITLE3=Phuong Thanh - Tinh Suong Khoi
TTITLE4=Phuong Thanh - Trai Tim Khong Ngu Yen
TTITLE5=Phuong Thanh - Khuc Rong Ca
TTITLE6=Phuong Thanh - Tinh Yeu La Chiec Bong
TTITLE7=Phuong Thanh - Close To You
TTITLE8=Phuong Thanh - Mot Lan Nho Mai
TTITLE9=Phuong Thanh - Song Nho
EXTD=
EXTT0=
EXTT1=
EXTT2=
EXTT3=
EXTT4=
EXTT5=
EXTT6=
EXTT7=
EXTT8=
EXTT9=
PLAYORDER=
